# xmcd
#
# Track frame offsets:
#	150
#	25676
#	42938
#	89065
#	104045
#	140576
#	155434
#	208835
#	238179
#	267128
#	283209
#
# Disc length: 4624 seconds
#
# Revision: 0
# Processed by: cddbd v1.5.1PL2 Copyright (c) Steve Scherf et al.
# Submitted via: dBpowerAMP V4.0
#
DISCID=a7120e0b
DTITLE=Stevie Ray Vaughan - Stevie Ray Vaughan
DYEAR=1900
DGENRE=
TTITLE0=Lenny (accoustic)
TTITLE1=Pride 'n Joy (unplugged)
TTITLE2=The Duel from crossroads (ft.S. Vai)
TTITLE3=Bar Blues (live)
TTITLE4=Little Wing (live)
TTITLE5=Still Got The blues (ft. B. Guy)
TTITLE6=Tin Pan Alley (ft. B. Guy)
TTITLE7=Traffic Jam (ft. C. Santana)
TTITLE8=Life Without You (live)
TTITLE9=Taxman
TTITLE10=Voodoo Chile (live and long)
EXTD=
EXTT0=
EXTT1=
EXTT2=
EXTT3=
EXTT4=
EXTT5=
EXTT6=
EXTT7=
EXTT8=
EXTT9=
EXTT10=
PLAYORDER=
